<?xml version="1.0" encoding="UTF-8" standalone="no"?>
<!-- Created with Inkscape (http://www.inkscape.org/) -->

<svg
   width="89.234558"
   height="109.63103"
   viewBox="0 0 89.234558 109.63103"
   version="1.1"
   id="svg1"
   xml:space="preserve"
   xmlns:inkscape="http://www.inkscape.org/namespaces/inkscape"
   xmlns:sodipodi="http://sodipodi.sourceforge.net/DTD/sodipodi-0.dtd"
   xmlns="http://www.w3.org/2000/svg"
   xmlns:svg="http://www.w3.org/2000/svg"><sodipodi:namedview
     id="namedview1"
     pagecolor="#ffffff"
     bordercolor="#000000"
     borderopacity="0.25"
     inkscape:showpageshadow="2"
     inkscape:pageopacity="0.0"
     inkscape:pagecheckerboard="0"
     inkscape:deskcolor="#d1d1d1"
     inkscape:document-units="mm" /><defs
     id="defs1" /><g
     inkscape:label="Layer 1"
     inkscape:groupmode="layer"
     id="layer1"
     transform="translate(-19.382719,-9.1844826)"><g
       style="fill:none"
       id="g1"
       transform="matrix(5.0991179,0,0,5.0991179,2.8105852,2.8105852)"><path
         d="M 4,18 V 6"
         stroke="#1c274c"
         stroke-width="1.5"
         stroke-linecap="round"
         id="path1"
         style="stroke:#000000;stroke-opacity:1" /><path
         d="M 20,6 V 18"
         stroke="#1c274c"
         stroke-width="1.5"
         stroke-linecap="round"
         id="path2"
         style="stroke:#020202;stroke-opacity:1" /><path
         d="M 12,10 C 16.4183,10 20,8.20914 20,6 20,3.79086 16.4183,2 12,2 7.58172,2 4,3.79086 4,6 c 0,2.20914 3.58172,4 8,4 z"
         stroke="#1c274c"
         stroke-width="1.5"
         id="path3"
         style="stroke:#000000;stroke-opacity:1" /><path
         d="m 20,12 c 0,2.2091 -3.5817,4 -8,4 -4.41828,0 -8,-1.7909 -8,-4"
         stroke="#1c274c"
         stroke-width="1.5"
         id="path4"
         style="stroke:#000000;stroke-opacity:1" /><path
         d="m 20,18 c 0,2.2091 -3.5817,4 -8,4 -4.41828,0 -8,-1.7909 -8,-4"
         stroke="#1c274c"
         stroke-width="1.5"
         id="path5"
         style="stroke:#000000;stroke-opacity:1" /></g></g></svg>
