<?xml version="1.0" encoding="UTF-8" standalone="no"?>
<!-- Created with Inkscape (http://www.inkscape.org/) -->

<svg
   width="128"
   height="128"
   viewBox="0 0 128 128"
   version="1.1"
   id="svg1"
   xml:space="preserve"
   sodipodi:docname="Unified.svg"
   inkscape:export-filename="Unified.png"
   inkscape:export-xdpi="72"
   inkscape:export-ydpi="72"
   inkscape:version="1.3.2 (091e20e, 2023-11-25, custom)"
   xmlns:inkscape="http://www.inkscape.org/namespaces/inkscape"
   xmlns:sodipodi="http://sodipodi.sourceforge.net/DTD/sodipodi-0.dtd"
   xmlns="http://www.w3.org/2000/svg"
   xmlns:svg="http://www.w3.org/2000/svg"><sodipodi:namedview
     id="namedview1"
     pagecolor="#ffffff"
     bordercolor="#000000"
     borderopacity="0.25"
     inkscape:showpageshadow="2"
     inkscape:pageopacity="0.0"
     inkscape:pagecheckerboard="0"
     inkscape:deskcolor="#d1d1d1"
     inkscape:document-units="mm"
     showgrid="false"
     inkscape:zoom="5.9714645"
     inkscape:cx="24.198419"
     inkscape:cy="43.791603"
     inkscape:window-width="2560"
     inkscape:window-height="1361"
     inkscape:window-x="-9"
     inkscape:window-y="-9"
     inkscape:window-maximized="1"
     inkscape:current-layer="layer1" /><defs
     id="defs1" /><g
     inkscape:label="Layer 1"
     inkscape:groupmode="layer"
     id="layer1"
     transform="translate(-1.5329654,-4.2280298)"><g
       style="fill:none"
       id="g1"
       transform="matrix(6.2959891,0,0,6.2959891,-10.018904,-2.6018476)"><path
         d="m 11,6 10,7.2e-4 M 11,12 l 10,7e-4 M 11,18 l 10,7e-4 M 3,11.9444 4.53846,13.5 8,10 M 3,5.94444 4.53846,7.5 8,4 M 4.5,18 H 4.51 M 5,18 C 5,18.2761 4.77614,18.5 4.5,18.5 4.22386,18.5 4,18.2761 4,18 4,17.7239 4.22386,17.5 4.5,17.5 4.77614,17.5 5,17.7239 5,18 Z"
         stroke="#000000"
         stroke-width="2"
         stroke-linecap="round"
         stroke-linejoin="round"
         id="path1" /></g></g></svg>
